<?xml version="1.0" encoding="utf-8"?>
<!-- Generator: Adobe Illustrator 25.0.0, SVG Export Plug-In . SVG Version: 6.00 Build 0)  -->
<svg version="1.1" id="Layer_1" xmlns="http://www.w3.org/2000/svg" xmlns:xlink="http://www.w3.org/1999/xlink" x="0px" y="0px"
	 viewBox="0 0 466 123.2" style="enable-background:new 0 0 466 123.2;" xml:space="preserve">
<style type="text/css">
	.st0{clip-path:url(#SVGID_2_);}
	.st1{fill:#FF7BAC;}
	.st2{fill:#662D91;}
	.st3{fill:#0071BC;}
	.st4{fill:#93278F;}
	.st5{fill:#E290EB;}
	.st6{fill:#67C2E2;}
	.st7{fill:#333399;}
	.st8{clip-path:url(#SVGID_4_);}
	.st9{clip-path:url(#SVGID_6_);}
	.st10{clip-path:url(#SVGID_8_);}
	.st11{clip-path:url(#SVGID_10_);}
	.st12{clip-path:url(#SVGID_12_);}
</style>
<g id="Layer_1_1_">
	<g>
		<defs>
			<path id="SVGID_1_" d="M245.5,6.5h24.1l27.6,112.4h-21.3L264.5,62c-2.2-11.2-4.9-24.4-7.1-36.2h-0.5c-2.2,11.9-4.6,25-6.9,36.2
				l-11.6,56.9h-20.6L245.5,6.5z M236.2,72.4h42.4v19.8h-42.4V72.4z"/>
		</defs>
		<clipPath id="SVGID_2_">
			<use xlink:href="#SVGID_1_"  style="overflow:visible;"/>
		</clipPath>
		<g class="st0">
			<polygon class="st1" points="31.4,-99.7 -38.1,-99.7 72,260.3 			"/>
			<polygon class="st2" points="112.4,-99.7 72,260.3 31.4,-99.7 			"/>
			<polygon class="st3" points="130.6,260.1 72,260.3 112.4,-99.7 			"/>
			<polygon class="st4" points="210.8,260.2 130.6,260.2 112.4,-99.6 			"/>
			<polygon class="st5" points="149.9,-99.6 112.4,-99.6 210.8,260.2 			"/>
			<polygon class="st6" points="211.7,-99.6 210.8,260.2 149.9,-99.6 			"/>
			<polygon class="st7" points="287.4,260.2 210.8,260.2 211.7,-99.6 			"/>
			<polygon class="st5" points="326.2,260.2 287.4,260.2 211.7,-99.6 			"/>
			<polygon class="st1" points="283.4,-99.6 211.7,-99.6 326.2,260.2 			"/>
			<polygon class="st2" points="367.8,-99.6 326.2,260.2 283.4,-99.6 			"/>
			<polygon class="st3" points="387.2,260.2 326.2,260.2 367.8,-99.6 			"/>
			<polygon class="st4" points="471.2,260.2 387.2,260.2 367.8,-99.6 			"/>
			<polygon class="st6" points="419.5,-99.6 367.8,-99.6 471.2,260.2 			"/>
			<polygon class="st3" points="471.4,-99.6 471.2,260.2 419.5,-99.6 			"/>
			<polygon class="st7" points="-38.1,-99.7 34.4,260.1 -38.1,260.3 			"/>
			<polygon class="st6" points="72,260.3 34.4,260.1 -38.1,-99.7 			"/>
		</g>
	</g>
	<g>
		<defs>
			<path id="SVGID_3_" d="M5.9,6.5h20.6l18.7,55.9l7.6,24.7h0.5c-0.9-11.8-2.8-27.6-2.8-40.8V6.5h19.2v112.4H49l-18.7-56l-7.6-24.5
				h-0.5c0.9,12.4,2.8,27.5,2.8,40.7v39.9H5.9V6.5z"/>
		</defs>
		<clipPath id="SVGID_4_">
			<use xlink:href="#SVGID_3_"  style="overflow:visible;"/>
		</clipPath>
		<g class="st8">
			<polygon class="st1" points="57.2,-100.8 -12.3,-100.8 97.8,259.2 			"/>
			<polygon class="st2" points="138.2,-100.8 97.8,259.2 57.2,-100.8 			"/>
			<polygon class="st3" points="156.3,258.9 97.8,259.2 138.2,-100.8 			"/>
			<polygon class="st4" points="236.6,259.1 156.3,259.1 138.2,-100.7 			"/>
			<polygon class="st5" points="175.7,-100.7 138.2,-100.7 236.6,259.1 			"/>
			<polygon class="st6" points="237.5,-100.7 236.6,259.1 175.7,-100.7 			"/>
			<polygon class="st7" points="313.1,259.1 236.6,259.1 237.5,-100.7 			"/>
			<polygon class="st5" points="352,259.1 313.1,259.1 237.5,-100.7 			"/>
			<polygon class="st1" points="309.2,-100.7 237.5,-100.7 352,259.1 			"/>
			<polygon class="st2" points="393.6,-100.7 352,259.1 309.2,-100.7 			"/>
			<polygon class="st3" points="413,259.1 352,259.1 393.6,-100.7 			"/>
			<polygon class="st4" points="497,259.1 413,259.1 393.6,-100.7 			"/>
			<polygon class="st6" points="445.3,-100.7 393.6,-100.7 497,259.1 			"/>
			<polygon class="st3" points="497.2,-100.7 497,259.1 445.3,-100.7 			"/>
			<polygon class="st7" points="-12.3,-100.8 60.2,258.9 -12.3,259.2 			"/>
			<polygon class="st6" points="97.8,259.2 60.2,258.9 -12.3,-100.8 			"/>
		</g>
	</g>
	<g>
		<defs>
			<path id="SVGID_5_" d="M104.2,6.5h24.1l27.6,112.4h-21.3L123.2,62c-2.2-11.2-5-24.4-7.1-36.2h-0.5c-2.2,11.9-4.6,25-6.9,36.2
				l-11.5,56.9H76.6L104.2,6.5z M94.9,72.4h42.5v19.8H94.9V72.4z"/>
		</defs>
		<clipPath id="SVGID_6_">
			<use xlink:href="#SVGID_5_"  style="overflow:visible;"/>
		</clipPath>
		<g class="st9">
			<polygon class="st1" points="54.6,-99.7 -14.9,-99.7 95.2,260.3 			"/>
			<polygon class="st2" points="135.6,-99.7 95.2,260.3 54.6,-99.7 			"/>
			<polygon class="st3" points="153.7,260.1 95.2,260.3 135.6,-99.7 			"/>
			<polygon class="st4" points="233.9,260.2 153.7,260.2 135.6,-99.6 			"/>
			<polygon class="st5" points="173.1,-99.6 135.6,-99.6 233.9,260.2 			"/>
			<polygon class="st6" points="234.9,-99.6 233.9,260.2 173.1,-99.6 			"/>
			<polygon class="st7" points="310.5,260.2 233.9,260.2 234.9,-99.6 			"/>
			<polygon class="st5" points="349.4,260.2 310.5,260.2 234.9,-99.6 			"/>
			<polygon class="st1" points="306.6,-99.6 234.9,-99.6 349.4,260.2 			"/>
			<polygon class="st2" points="391,-99.6 349.4,260.2 306.6,-99.6 			"/>
			<polygon class="st3" points="410.4,260.2 349.4,260.2 391,-99.6 			"/>
			<polygon class="st4" points="494.4,260.2 410.4,260.2 391,-99.6 			"/>
			<polygon class="st6" points="442.7,-99.6 391,-99.6 494.4,260.2 			"/>
			<polygon class="st3" points="494.6,-99.6 494.4,260.2 442.7,-99.6 			"/>
			<polygon class="st7" points="-14.9,-99.7 57.6,260.1 -14.9,260.3 			"/>
			<polygon class="st6" points="95.2,260.3 57.6,260.1 -14.9,-99.7 			"/>
		</g>
	</g>
	<g>
		<defs>
			<path id="SVGID_7_" d="M176.4,80.9L147.9,6.5h21.4l9,27c2.6,8.7,5.3,16.8,8,25.8h0.6c2.8-9,5.6-17.1,8.3-25.8l8.9-27h21
				l-28.6,74.4v38h-20.1V80.9z"/>
		</defs>
		<clipPath id="SVGID_8_">
			<use xlink:href="#SVGID_7_"  style="overflow:visible;"/>
		</clipPath>
		<g class="st10">
			<polygon class="st1" points="42,-99.7 -27.5,-99.7 82.6,260.3 			"/>
			<polygon class="st2" points="123,-99.7 82.6,260.3 42,-99.7 			"/>
			<polygon class="st3" points="141.2,260.1 82.6,260.3 123,-99.7 			"/>
			<polygon class="st4" points="221.4,260.2 141.2,260.2 123,-99.6 			"/>
			<polygon class="st5" points="160.5,-99.6 123,-99.6 221.4,260.2 			"/>
			<polygon class="st6" points="222.3,-99.6 221.4,260.2 160.5,-99.6 			"/>
			<polygon class="st7" points="298,260.2 221.4,260.2 222.3,-99.6 			"/>
			<polygon class="st5" points="336.8,260.2 298,260.2 222.3,-99.6 			"/>
			<polygon class="st1" points="294,-99.6 222.3,-99.6 336.8,260.2 			"/>
			<polygon class="st2" points="378.4,-99.6 336.8,260.2 294,-99.6 			"/>
			<polygon class="st3" points="397.8,260.2 336.8,260.2 378.4,-99.6 			"/>
			<polygon class="st4" points="481.8,260.2 397.8,260.2 378.4,-99.6 			"/>
			<polygon class="st6" points="430.1,-99.6 378.4,-99.6 481.8,260.2 			"/>
			<polygon class="st3" points="482,-99.6 481.8,260.2 430.1,-99.6 			"/>
			<polygon class="st7" points="-27.5,-99.7 45,260.1 -27.5,260.3 			"/>
			<polygon class="st6" points="82.6,260.3 45,260.1 -27.5,-99.7 			"/>
		</g>
	</g>
	<g>
		<defs>
			<path id="SVGID_9_" d="M309.7,6.5h20.6L349,62.4l7.6,24.7h0.5c-0.9-11.8-2.8-27.6-2.8-40.8V6.5h19.1v112.4h-20.5l-18.7-56
				l-7.6-24.6h-0.5c0.9,12.4,2.8,27.5,2.8,40.7v39.9h-19.1V6.5z"/>
		</defs>
		<clipPath id="SVGID_10_">
			<use xlink:href="#SVGID_9_"  style="overflow:visible;"/>
		</clipPath>
		<g class="st11">
			<polygon class="st1" points="34.8,-99.7 -34.7,-99.7 75.4,260.3 			"/>
			<polygon class="st2" points="115.8,-99.7 75.4,260.3 34.8,-99.7 			"/>
			<polygon class="st3" points="133.9,260.1 75.4,260.3 115.8,-99.7 			"/>
			<polygon class="st4" points="214.2,260.2 133.9,260.2 115.8,-99.6 			"/>
			<polygon class="st5" points="153.3,-99.6 115.8,-99.6 214.2,260.2 			"/>
			<polygon class="st6" points="215.1,-99.6 214.2,260.2 153.3,-99.6 			"/>
			<polygon class="st7" points="290.8,260.2 214.2,260.2 215.1,-99.6 			"/>
			<polygon class="st5" points="329.6,260.2 290.8,260.2 215.1,-99.6 			"/>
			<polygon class="st1" points="286.8,-99.6 215.1,-99.6 329.6,260.2 			"/>
			<polygon class="st2" points="371.2,-99.6 329.6,260.2 286.8,-99.6 			"/>
			<polygon class="st3" points="390.6,260.2 329.6,260.2 371.2,-99.6 			"/>
			<polygon class="st4" points="474.6,260.2 390.6,260.2 371.2,-99.6 			"/>
			<polygon class="st6" points="422.9,-99.6 371.2,-99.6 474.6,260.2 			"/>
			<polygon class="st3" points="474.8,-99.6 474.6,260.2 422.9,-99.6 			"/>
			<polygon class="st7" points="-34.7,-99.7 37.8,260.1 -34.7,260.3 			"/>
			<polygon class="st6" points="75.4,260.3 37.8,260.1 -34.7,-99.7 			"/>
		</g>
	</g>
	<g>
		<defs>
			<path id="SVGID_11_" d="M412.2,6.5h24.1l27.6,112.4h-21.3L431.1,62c-2.2-11.2-4.9-24.4-7.1-36.2h-0.5c-2.2,11.9-4.6,25-6.9,36.2
				l-11.5,56.9h-20.5L412.2,6.5z M402.9,72.4h42.4v19.8h-42.4V72.4z"/>
		</defs>
		<clipPath id="SVGID_12_">
			<use xlink:href="#SVGID_11_"  style="overflow:visible;"/>
		</clipPath>
		<g class="st12">
			<polygon class="st1" points="34.7,-99.7 -34.8,-99.7 75.3,260.3 			"/>
			<polygon class="st2" points="115.7,-99.7 75.3,260.3 34.7,-99.7 			"/>
			<polygon class="st3" points="133.8,260.1 75.3,260.3 115.7,-99.7 			"/>
			<polygon class="st4" points="214,260.2 133.8,260.2 115.7,-99.6 			"/>
			<polygon class="st5" points="153.2,-99.6 115.7,-99.6 214,260.2 			"/>
			<polygon class="st6" points="215,-99.6 214,260.2 153.2,-99.6 			"/>
			<polygon class="st7" points="290.6,260.2 214,260.2 215,-99.6 			"/>
			<polygon class="st5" points="329.5,260.2 290.6,260.2 215,-99.6 			"/>
			<polygon class="st1" points="286.7,-99.6 215,-99.6 329.5,260.2 			"/>
			<polygon class="st2" points="371.1,-99.6 329.5,260.2 286.7,-99.6 			"/>
			<polygon class="st3" points="390.5,260.2 329.5,260.2 371.1,-99.6 			"/>
			<polygon class="st4" points="474.5,260.2 390.5,260.2 371.1,-99.6 			"/>
			<polygon class="st6" points="422.8,-99.6 371.1,-99.6 474.5,260.2 			"/>
			<polygon class="st3" points="474.7,-99.6 474.5,260.2 422.8,-99.6 			"/>
			<polygon class="st7" points="-34.8,-99.7 37.7,260.1 -34.8,260.3 			"/>
			<polygon class="st6" points="75.3,260.3 37.7,260.1 -34.8,-99.7 			"/>
		</g>
	</g>
</g>
</svg>
